# xmcd
#
# Track frame offsets: 
#        150
#        17289
#        86642
#        141360
#
# Disc length: 3967 seconds
#
# Revision: 0
# Processed by: cddbd v1.4PL0 Copyright (c) Steve Scherf et al.
# Submitted via: ExactAudioCopy v0.95a3
#
DISCID=280f7d04
DTITLE=La Chimuchina - Sonchapu
DYEAR=1999
DGENRE=Other
TTITLE0=Centro
TTITLE1=Sonchapu
TTITLE2=Siblauta, cañi Tantan, Vasilbiku
TTITLE3=Chalchalcha
EXTD=
EXTT0=
EXTT1=
EXTT2=
EXTT3=
PLAYORDER=
